<svg width="83" height="24" fill="none" xmlns="http://www.w3.org/2000/svg"><path fill-rule="evenodd" clip-rule="evenodd" d="M15.418 16.202c.03.26-.04.752-.052.817a3.59 3.59 0 0 1-.16.537 5.978 5.978 0 0 1-.289.553c-.226.353-.5.675-.817.958-.896.74-2.282 1.161-3.473 1.3a9.258 9.258 0 0 1-2.59-.072c-.294-.05-.732-.144-.732-.144s0 .168-.013.29a1.13 1.13 0 0 1-.076.24.398.398 0 0 1-.312.217.972.972 0 0 1-.535-.026c-.272-.109-.37-.352-.417-.632a10.902 10.902 0 0 1-.076-.615s-.203-.091-.373-.172a9.765 9.765 0 0 1-1.449-.848 18.26 18.26 0 0 1-.749-.6c-.318-.29-.605-.578-.824-.947-.169-.289-.217-.544-.089-.85.179-.425.817-.746 1.255-.93.321-.135 1.32-.447 1.734-.505.196-.028.5-.08.52-.091a.098.098 0 0 0 .018-.016 6.12 6.12 0 0 0 .022-.59c-.003-.155.118-1.147.157-1.357.02-.115.11-.553.203-.668.06-.078.167-.073.254-.02.475.282.62 1.262.655 1.76.021.304.032.762.032.762s.545-.015.881-.006c.344.014.686.05 1.025.108.433.066 1.278.242 1.763.476.399.194.773.52.894.868.112.316.095.534-.076.82-.192.321-.557.56-.926.578-.11.006-.524-.046-.651-.145a.105.105 0 0 1-.011-.15c.014-.017.207-.115.32-.172a.757.757 0 0 0 .152-.1c.095-.08.18-.169.171-.272-.013-.133-.161-.216-.303-.269-.66-.251-1.982-.46-2.621-.496-.25-.014-.605-.025-.605-.025l.075 3.368s.294.054.525.09c.134.02.696.068.846.072 1.14.029 2.412-.068 3.457-.54.459-.207.88-.463 1.2-.811a2.288 2.288 0 0 0 .581-1.748c-.063-.72-.593-1.572-1.016-2.091-1.117-1.374-3.032-2.502-4.716-3.163-1.72-.676-3.419-1.065-5.244-1.13-.47-.016-1.496.006-2.014.145a5.248 5.248 0 0 0-.079.022 2.42 2.42 0 0 1-.14.037.606.606 0 0 0-.163.065.267.267 0 0 0-.025.024l.062.03c.032.012.127.023.223.034.067.007.134.014.183.023a.396.396 0 0 1 .262.144.144.144 0 0 1 0 .188c-.117.136-.56.113-.756.084-.197-.03-.454-.09-.5-.259-.055-.198.044-.392.15-.572.214-.361.52-.546.97-.664.668-.17 1.353-.273 2.043-.307 1.362-.048 2.648.179 3.971.562.845.25 1.67.557 2.47.918.617.292 1.216.614 1.797.967.146.091.995.687 1.126.792.276.216.635.524.895.77.505.478 1.131 1.209 1.438 1.79.029.054.055.107.082.162.042.086.085.175.145.272.076.156.14.316.194.48l.015.06c.02.084.043.175.046.179.03.146.05.293.06.442v-.001zm.331-2.464a1.86 1.86 0 0 1 .146-.24l.01.003c.006-.007.039.01.064.029.086.029.175.05.265.064.053.003.108.012.164.021.05.008.102.017.152.02.34.03.802-.074 1.104-.186.681-.255 1.211-.621 1.74-1.142.312-.303.585-.8.485-1.253a.916.916 0 0 0-.355-.542 1.343 1.343 0 0 0-.505-.229.548.548 0 0 1-.132-.028.383.383 0 0 1-.072-.078 1.29 1.29 0 0 0-.53-.34c-.522-.173-1.22-.042-1.695.15a3.944 3.944 0 0 0-1.32.863c-.351.361-.622.81-.593 1.301.014.186.065.367.15.535.024.041.056.084.088.127.06.08.121.162.14.242.008.086.01.172.004.258a.744.744 0 0 0 .254.537c.041.043.1.07.161.07a.233.233 0 0 0 .166-.06.484.484 0 0 0 .11-.122zm-.014-1.807c-.12.16-.271.373-.271.373h-.002s-.032-.063-.052-.11c-.139-.334.172-.71.454-.94.17-.14.513-.358.746-.401.098-.02.272-.036.272-.036s-.111.087-.205.164a6.758 6.758 0 0 0-.942.95zm5.2 4.254-.054-.008h-.008l-1.914-.216a.468.468 0 0 1-.055-.01l-.046-.007c-.128-.02-.407-.063-.289-.19a.606.606 0 0 1 .227-.088c.66-.173 1.455-.199 2.198-.223.233-.008.46-.015.677-.027h.012c.208-.013.654-.04.877-.106a.591.591 0 0 0 .437-.434c.024-.118-.035-.174-.151-.233-.755-.38-1.996-.38-2.764-.29-.795.095-1.855.331-2.309.954-.173.237-.27.603-.195.9a.632.632 0 0 0 .35.381c.169.064.345.105.525.124.14.02.642.061 1.069.096l.278.023c.44.035 1.287.123 1.74.305 0 0 .43.145.43.38a.36.36 0 0 1-.184.273c-.68.46-1.608.592-2.44.579-.273 0-.543-.055-.793-.16-.121-.051-.28-.173-.258-.303.05-.252.338-.316.58-.294.151.02.3.06.442.116.111.042.21.082.3.12.343.14.572.235.943.182.174-.028.78-.151.86-.39a.162.162 0 0 0-.053-.163c-.066-.063-.43-.198-.53-.232a6.241 6.241 0 0 0-1.407-.246c-.492-.017-1.148.07-1.45.47a.766.766 0 0 0-.04.856c.212.36.635.64.983.801a3.806 3.806 0 0 0 1.945.332c.356-.03.705-.12 1.029-.266.318-.147.666-.422.824-.751.213-.463.2-.993-.037-1.446a1.151 1.151 0 0 0-.613-.551c-.314-.133-.72-.204-1.135-.258zm-3.905-3.48c.44-.029.867-.151 1.251-.358.379-.203.942-.6.884-1.068a.398.398 0 0 0-.252-.319c-.17-.072-.259-.059-.476 0-.133.034-.26.086-.378.154a5.65 5.65 0 0 0-1.394 1.176l-.083.108a7.127 7.127 0 0 1-.135.174c-.039.046-.07.089-.065.1.013.047.472.042.647.03v.003zm-.52 1.8a.426.426 0 0 1 .08.023c.24.087.338.298.397.53.136.538.194 1.73.217 2.197l.022.55.019.49.003.072c.013.28.03.633-.03.886a.452.452 0 0 1-.19.272c-.114.072-.372.072-.515.046-.35-.068-.463-.283-.513-.613-.118-.79-.06-2.337.009-2.99.023-.217.108-.907.227-1.196.04-.098.126-.295.275-.267zM5.874 15.819v-.001zm0 0c-.003 0-.522.034-.878.072-.454.047-1.313.188-1.807.357-.147.05-.45.17-.475.317-.026.145.07.268.18.39.063.073.42.4.52.48.582.44 1.22.81 1.897 1.1.215.086.57.207.57.207s-.026-.968-.02-1.922c0-.495.013-.98.013-1.001zm24.356-.144s1.678-.076 2.316-.216l-.006-.004c.328-.074.136-.382.136-.382-.398-.76-.857-.717-.857-.717-1.32-.043-3.237.292-3.447.391-.195.085-.174.226.081.533.274.324.735.293.735.293l-.404.8c-.33.022-.444.12-.444.12-.186.194.076.768.076.768s-.573 1.228-.157 1.879c.444.683.973.65.973.65 1.002.07 2.654-.935 2.742-1.267.074-.268-.185-.561-.412-.616-.215-.043-1.867.254-2.066.304-.212.055-.117-.136-.117-.136l.255-.825s1.58-.059 1.808-.096c.214-.034.227-.179.227-.179.016-.152.022-.304.02-.457-.024-.24-.222-.217-.222-.217-.61-.061-1.448.008-1.448.008l.211-.634zm-2.647 2.856c-.17.38-.616.785-1.171.533-.556-.252-1.42-1.959-1.42-1.959s-.332-.636-.396-.62c0 0-.075-.124-.115.572-.01.155-.014.342-.019.542-.016.697-.037 1.547-.261 1.712-.274.217-.605.129-.778-.12-.156-.246-.22-.828-.136-1.852.1-1.025.35-2.116.668-2.457.314-.337.567-.1.669-.005l.004.005s.425.367 1.128 1.45l.124.2s.637 1.023.704 1.02c0 0 .051.047.098.013.067-.018.04-.346.04-.346s-.132-1.114-.714-3a.85.85 0 0 1-.028-.455c.058-.223.292-.118.292-.118s.902.433 1.34 1.836c.437 1.402.142 2.668-.03 3.05v-.001zm6.595.939c1.54.337 2.699-1.095 3.108-1.78l.004-.004a3.02 3.02 0 0 0 .371-1.475c0-.59-.17-1.134-.536-1.384-1.095-.724-2.856 1.571-3.631 2.71-.116-.58.295-1.315.295-1.315s.66-1.089.75-1.31c.09-.22.133-.679.03-.722-.103-.043-.28.101-.28.101-1.478 1.27-1.684 2.675-1.684 2.675-.14.759.023 1.29.263 1.662-.82 1.672-1.223 3.13-1.116 3.993.1.65.588 1.128.89 1.229.302.12.355-.227.355-.227.245-1.783.672-2.975 1.18-4.153zm2.79-3.582s-.06-.453-.523.046a10.75 10.75 0 0 0-1.695 2.28c.605-.065 1.192-.38 1.369-.54.287-.244.958-.906.85-1.786zm5.982-.102h2.822c.06 0 .118.023.16.064a.212.212 0 0 1 .067.155v.558c0 .12-.102.217-.227.217H42.99v.379c.003.752-.036 1.505-.118 2.254a.223.223 0 0 1-.227.196h-.605a.22.22 0 0 1-.158-.068.2.2 0 0 1-.054-.158c.085-.739.126-1.481.122-2.224v-.38h-2.754a.222.222 0 0 1-.227-.216v-.56c0-.12.102-.217.227-.217h2.716a18.893 18.893 0 0 0-.36-2.675.178.178 0 0 1 .04-.151.194.194 0 0 1 .147-.067h.65c.102 0 .188.07.206.164.18.902.299 1.813.355 2.729z" fill="#fff"/><path d="M42.21 11.573C39.499 5.202 33.324.785 26.16.094c-7.162-.69-14.137 2.457-18.127 8.182a.209.209 0 0 0-.027.191.227.227 0 0 0 .144.138l.505.162a.285.285 0 0 0 .325-.105C12.405 3.84 18.11.954 24.21.956c7.397.002 14.076 4.232 16.958 10.742a.266.266 0 0 0 .245.155h.605c.07 0 .136-.034.175-.09a.193.193 0 0 0 .018-.19z" fill="url(#a)"/><path d="M69.359 13.985h-8.596c-.876 0-1.465.448-1.549 1.124-.035.242-.06.471-.06.471h11.453s.025-.16.037-.299c.084-.676-.205-1.296-1.287-1.296M70.536 16.176s-.024.217-.06.47c-.076.482-.445.85-1.129.85H66.91l-.276 2.144h-1.947l.444-3.452h5.403l.002-.012zM53.776 13.985l-.205 1.583h5.199l.204-1.583h-5.198zM53.5 16.17l-.444 3.464h5.186l.192-1.502h-3.241l.084-.654h3.241l.168-1.308H53.5zM71.207 13.985h4.237c.672 0 1.369.299 1.224 1.343-.023.183-.035.24-.035.24h-5.63l.204-1.583zM70.487 19.629h1.933l.444-3.453H70.92l-.433 3.453zM74.173 19.629h1.945l.432-3.453h-1.933l-.444 3.453zM63.344 16.176h-4.262c-.144.907.324 1.308.984 1.308h2.629l-.084.65h-3.783l-.192 1.503h4.286c.132-.012 1.104-.034 1.428-.796.109-.252.205-1.135.227-1.318.145-1.102-.624-1.354-1.236-1.354" fill="#fff"/><path d="m79.678 14.681-.18 1.411h-1.44l-.18 1.4h1.452l-.192 1.433h1.549l.18-1.433h1.465l.168-1.4h-1.453l.18-1.41h-1.549z" fill="#FAB200"/><defs><radialGradient id="a" cx="0" cy="0" r="1" gradientUnits="userSpaceOnUse" gradientTransform="matrix(32.7404 0 0 11.335 42.05 12.033)"><stop offset=".01" stop-color="#fff"/><stop offset=".04" stop-color="#C6FFFF"/><stop offset=".09" stop-color="#80FFFF"/><stop offset=".13" stop-color="#49FFFF"/><stop offset=".17" stop-color="#21FFFF"/><stop offset=".2" stop-color="#09FFFF"/><stop offset=".22" stop-color="#0FF"/><stop offset=".28" stop-color="#01F6FF" stop-opacity=".96"/><stop offset=".39" stop-color="#04DEFF" stop-opacity=".87"/><stop offset=".53" stop-color="#08B6FF" stop-opacity=".71"/><stop offset=".69" stop-color="#0E7FFF" stop-opacity=".5"/><stop offset=".87" stop-color="#1639FF" stop-opacity=".22"/><stop offset="1" stop-color="#1C00FF" stop-opacity=".01"/></radialGradient></defs></svg>