<svg width="161" height="35" fill="none" xmlns="http://www.w3.org/2000/svg"><path fill-rule="evenodd" clip-rule="evenodd" d="M3.443 21.155h1.648v.003c1.617 0 2.92.715 2.92 2.575v4.437H5.436v-4.108c-.004-.362-.31-.654-.69-.658H3.25c-.38.004-.685.297-.689.659v4.096H0V17.987h2.573v3.31s.286-.142.87-.142zm18.942 7.015H19.81V17.987h2.575V28.17zM14.6 25.918c.379-.003.685-.296.689-.657 0-.126 0-4.103-.015-4.103h2.575v4.31c0 1.588-.973 2.69-2.575 2.69h-2.516c-1.737 0-2.92-.93-2.92-2.69v-4.31h2.575v4.103c.005.362.311.654.69.658h1.497zm15.167-4.763v4.106c-.004.361-.31.654-.688.658H27.58c-.378-.005-.684-.297-.688-.658v-4.103h-2.575v4.31c0 1.76 1.183 2.69 2.92 2.69h2.515c1.602 0 2.576-1.102 2.576-2.69v-4.31l-2.562-.003z" fill="#1CE783"/><path fill-rule="evenodd" clip-rule="evenodd" d="M64.57 23.29c.044.375-.057 1.082-.074 1.176-.056.262-.133.52-.23.77a8.565 8.565 0 0 1-.415.796c-.325.507-.72.97-1.175 1.377-1.287 1.064-3.28 1.67-4.992 1.87a13.31 13.31 0 0 1-3.723-.104c-.423-.073-1.053-.208-1.053-.208s0 .241-.019.416c-.023.119-.06.235-.108.346a.572.572 0 0 1-.45.312c-.254.06-.522.047-.769-.037-.39-.157-.53-.506-.599-.909-.055-.323-.108-.883-.108-.883s-.292-.132-.537-.248a14.041 14.041 0 0 1-2.082-1.22 26.218 26.218 0 0 1-1.077-.862c-.458-.416-.87-.831-1.184-1.36-.244-.416-.314-.784-.129-1.222.257-.612 1.175-1.073 1.805-1.336.46-.196 1.896-.644 2.492-.728.282-.04.72-.114.746-.13a.139.139 0 0 0 .026-.024c.014-.018.037-.623.033-.846-.004-.224.169-1.65.225-1.953.03-.164.159-.795.292-.96.087-.111.24-.104.365-.03.683.407.89 1.816.942 2.533.03.437.046 1.094.046 1.094s.784-.021 1.267-.009c.493.021.985.073 1.472.156.623.095 1.838.348 2.535.685.573.278 1.11.747 1.285 1.247.162.454.137.768-.11 1.178-.275.462-.8.806-1.33.831-.158.009-.753-.066-.937-.208a.151.151 0 0 1-.015-.217c.02-.023.297-.164.461-.246.079-.04.152-.088.218-.145.137-.115.259-.242.245-.39-.018-.191-.231-.31-.434-.386-.951-.361-2.851-.66-3.769-.713-.359-.02-.87-.037-.87-.037l.109 4.842s.422.078.755.13c.191.027 1 .097 1.215.103 1.638.042 3.467-.098 4.97-.776.659-.297 1.264-.666 1.723-1.166a3.289 3.289 0 0 0 .837-2.513c-.092-1.034-.853-2.26-1.461-3.006-1.605-1.974-4.358-3.596-6.779-4.547-2.472-.97-4.914-1.53-7.538-1.623-.676-.024-2.15.008-2.896.208l-.112.031c-.07.02-.139.04-.201.053a.872.872 0 0 0-.235.094.387.387 0 0 0-.037.034.96.96 0 0 0 .09.042c.046.02.182.035.321.05.096.01.192.021.262.034.15.018.286.092.378.207a.207.207 0 0 1 0 .27c-.169.196-.805.163-1.088.12-.283-.043-.652-.129-.72-.37-.077-.287.065-.565.218-.824.307-.52.748-.785 1.394-.954.96-.245 1.944-.393 2.936-.441 1.958-.07 3.807.256 5.709.807 1.214.36 2.4.801 3.55 1.32.886.419 1.749.883 2.584 1.39.209.13 1.429.987 1.618 1.138.396.312.912.753 1.287 1.108.725.686 1.626 1.737 2.066 2.572.042.078.08.154.118.233.06.124.123.252.208.39.11.225.203.456.28.692l.02.085c.03.122.063.252.068.258.043.21.072.421.086.635v-.001zm.477-3.542c.06-.12.13-.235.209-.345l.015.005c.009-.01.056.014.091.041.124.042.252.073.381.092.077.005.156.018.236.031.073.012.147.024.219.03.488.042 1.153-.108 1.588-.27.978-.365 1.74-.892 2.5-1.64.448-.436.84-1.15.697-1.8a1.318 1.318 0 0 0-.51-.78 1.93 1.93 0 0 0-.725-.33.795.795 0 0 1-.19-.04.547.547 0 0 1-.104-.112 1.856 1.856 0 0 0-.761-.488c-.75-.25-1.754-.061-2.438.214a5.672 5.672 0 0 0-1.897 1.241c-.505.52-.894 1.166-.853 1.87.02.268.093.529.216.77.035.059.08.12.127.183.086.114.174.232.2.347.012.123.015.247.007.37.008.294.14.572.364.772a.335.335 0 0 0 .47.013.697.697 0 0 0 .158-.174zm-.02-2.597c-.173.231-.39.536-.39.536h-.003s-.046-.09-.075-.158c-.2-.48.247-1.02.652-1.351.246-.202.738-.514 1.073-.577.141-.027.391-.052.391-.052s-.16.126-.294.236c-.498.412-.951.87-1.354 1.366zm7.475 6.115-.079-.01h-.01l-2.752-.312a.646.646 0 0 1-.08-.013l-.065-.01c-.185-.03-.585-.092-.416-.273a.869.869 0 0 1 .327-.128c.948-.248 2.091-.285 3.16-.32.334-.011.661-.022.972-.039h.017c.3-.019.94-.058 1.26-.153a.85.85 0 0 0 .629-.623c.035-.17-.05-.25-.218-.336-1.084-.545-2.868-.546-3.972-.415-1.144.135-2.666.474-3.319 1.37-.249.341-.389.867-.28 1.294a.908.908 0 0 0 .503.548c.242.091.496.151.754.178.201.029.923.088 1.536.138h.001l.4.033c.63.05 1.849.176 2.501.438 0 0 .62.208.62.547a.519.519 0 0 1-.267.393c-.976.662-2.311.85-3.508.83-.392 0-.78-.078-1.138-.23-.175-.073-.404-.247-.371-.434.07-.362.485-.454.832-.423.218.03.432.085.636.166.16.06.302.119.432.173.493.203.823.339 1.355.261.25-.039 1.12-.217 1.238-.558a.233.233 0 0 0-.078-.236c-.095-.09-.618-.285-.76-.334a8.978 8.978 0 0 0-2.024-.353c-.708-.024-1.65.102-2.086.675a1.1 1.1 0 0 0-.056 1.232c.304.517.913.918 1.413 1.15a5.47 5.47 0 0 0 2.796.478 4.575 4.575 0 0 0 1.479-.383c.456-.21.957-.606 1.185-1.08a2.348 2.348 0 0 0-.054-2.078 1.655 1.655 0 0 0-.881-.792c-.45-.192-1.036-.293-1.632-.371zm-5.613-5.003a4.4 4.4 0 0 0 1.798-.514c.544-.292 1.354-.863 1.27-1.535a.571.571 0 0 0-.361-.458c-.245-.104-.372-.085-.685 0a2.114 2.114 0 0 0-.543.22 8.122 8.122 0 0 0-2.004 1.69l-.119.156c-.07.092-.138.181-.194.25-.056.067-.1.128-.093.144.018.067.678.06.93.044v.003zm-.748 2.589c.04.007.078.018.115.032.344.125.485.428.57.762.196.774.28 2.486.312 3.158.012.265.022.529.032.792.008.235.017.469.027.704l.005.102c.019.403.042.91-.043 1.274a.65.65 0 0 1-.275.391c-.163.104-.534.104-.739.067-.502-.099-.665-.407-.737-.882-.17-1.134-.088-3.359.012-4.298.034-.312.156-1.303.326-1.719.059-.141.182-.424.396-.383h-.001zm-15.289 1.886v-.001zm0 0c-.005 0-.75.05-1.262.104-.653.067-1.887.27-2.598.513-.212.073-.645.245-.682.455-.038.21.1.387.257.562.092.104.604.574.748.69a13.116 13.116 0 0 0 2.727 1.582c.309.123.821.297.821.297s-.038-1.392-.03-2.764c0-.711.018-1.409.02-1.44zm35.011-.206s2.412-.11 3.329-.312l-.009-.005c.471-.106.195-.549.195-.549-.572-1.092-1.231-1.03-1.231-1.03-1.897-.062-4.654.42-4.955.562-.28.122-.25.324.116.766.394.465 1.056.422 1.056.422l-.58 1.148c-.476.032-.638.173-.638.173-.268.279.11 1.104.11 1.104s-.824 1.766-.227 2.702c.638.981 1.4.935 1.4.935 1.44.1 3.815-1.345 3.94-1.822.107-.385-.266-.807-.592-.886-.309-.061-2.684.365-2.969.437-.306.08-.169-.195-.169-.195l.367-1.187s2.272-.084 2.598-.137c.308-.05.326-.258.326-.258.024-.218.033-.437.029-.656-.034-.344-.318-.312-.318-.312-.876-.088-2.081.01-2.081.01l.303-.91zm-3.805 4.105c-.244.546-.886 1.13-1.684.767-.798-.363-2.041-2.817-2.041-2.817s-.477-.914-.568-.891c0 0-.109-.178-.166.822-.013.223-.02.492-.026.78-.025 1.002-.054 2.224-.377 2.46-.393.313-.87.186-1.118-.173-.224-.353-.317-1.19-.196-2.66.145-1.475.503-3.043.96-3.534.452-.483.816-.143.962-.006l.007.006s.611.53 1.62 2.085l.179.287s.915 1.47 1.012 1.467c0 0 .074.067.141.018.096-.026.058-.496.058-.496s-.19-1.602-1.026-4.313a1.221 1.221 0 0 1-.042-.654c.085-.321.421-.17.421-.17s1.296.623 1.925 2.639c.629 2.015.206 3.836-.041 4.386v-.003zm9.48 1.35c2.213.485 3.88-1.574 4.469-2.558l.004-.006c.357-.655.54-1.383.534-2.121 0-.847-.243-1.63-.77-1.99-1.575-1.04-4.107 2.26-5.22 3.896-.167-.834.424-1.89.424-1.89s.95-1.565 1.079-1.882c.13-.317.19-.977.042-1.04-.148-.062-.402.146-.402.146-2.124 1.825-2.421 3.845-2.421 3.845-.2 1.09.034 1.855.378 2.39-1.18 2.403-1.758 4.5-1.604 5.739.143.935.845 1.622 1.28 1.766.433.173.51-.325.51-.325.352-2.563.966-4.277 1.697-5.97zm4.01-5.148s-.086-.652-.752.065a15.452 15.452 0 0 0-2.436 3.277c.87-.093 1.713-.546 1.968-.776.413-.351 1.376-1.302 1.22-2.567zm8.599-.148h4.057c.087 0 .17.033.232.093.061.059.095.139.094.222v.802a.32.32 0 0 1-.326.312h-3.999v.544a28.515 28.515 0 0 1-.169 3.24.32.32 0 0 1-.326.283h-.87a.317.317 0 0 1-.228-.098.286.286 0 0 1-.077-.227c.122-1.062.181-2.13.175-3.198v-.544h-3.958a.32.32 0 0 1-.327-.312v-.805a.32.32 0 0 1 .327-.312h3.903a27.243 27.243 0 0 0-.518-3.845.256.256 0 0 1 .059-.218.279.279 0 0 1 .211-.095h.935c.145 0 .27.099.296.235.259 1.296.429 2.606.509 3.923z" fill="#fff"/><path d="M103.085 16.636C99.186 7.478 90.308 1.129 80.013.136 69.717-.859 59.69 3.667 53.954 11.895a.3.3 0 0 0-.038.276c.034.093.11.165.207.197l.726.234a.41.41 0 0 0 .467-.15C60.24 5.52 68.44 1.37 77.208 1.373c10.634.003 20.235 6.083 24.378 15.44.06.136.198.224.352.224h.87a.31.31 0 0 0 .251-.129.277.277 0 0 0 .026-.272z" fill="url(#a)"/><path d="M142.11 20.103h-12.357c-1.26 0-2.106.643-2.227 1.616-.051.347-.085.676-.085.676h16.463s.035-.23.052-.429c.121-.973-.293-1.863-1.849-1.863M143.801 23.252s-.035.312-.087.677c-.109.692-.639 1.22-1.622 1.22h-3.503l-.397 3.083h-2.799l.638-4.963h7.767l.003-.017zM119.709 20.103l-.294 2.276h7.473l.294-2.276h-7.473zM119.312 23.243l-.638 4.98h7.455l.276-2.16h-4.659l.121-.94h4.659l.241-1.88h-7.455zM144.766 20.103h6.091c.966 0 1.967.43 1.759 1.93a4.717 4.717 0 0 1-.051.346h-8.091l.292-2.276zM143.731 28.215h2.779l.638-4.963h-2.795l-.622 4.963zM149.03 28.215h2.795l.622-4.963h-2.779l-.638 4.963zM133.464 23.253h-6.127c-.207 1.303.466 1.88 1.414 1.88h3.779l-.12.934h-5.438l-.276 2.16h6.161c.189-.017 1.586-.049 2.053-1.143.156-.363.294-1.633.326-1.896.208-1.583-.897-1.946-1.777-1.946" fill="#fff"/><path d="m156.944 21.104-.259 2.028h-2.071l-.259 2.012h2.089l-.277 2.06h2.227l.258-2.06h2.106l.241-2.012h-2.088l.259-2.029h-2.226z" fill="#FAB200"/><defs><radialGradient id="a" cx="0" cy="0" r="1" gradientUnits="userSpaceOnUse" gradientTransform="matrix(47.064 0 0 16.2939 102.855 17.298)"><stop offset=".01" stop-color="#fff"/><stop offset=".04" stop-color="#C6FFFF"/><stop offset=".09" stop-color="#80FFFF"/><stop offset=".13" stop-color="#49FFFF"/><stop offset=".17" stop-color="#21FFFF"/><stop offset=".2" stop-color="#09FFFF"/><stop offset=".22" stop-color="#0FF"/><stop offset=".28" stop-color="#01F6FF" stop-opacity=".96"/><stop offset=".39" stop-color="#04DEFF" stop-opacity=".87"/><stop offset=".53" stop-color="#08B6FF" stop-opacity=".71"/><stop offset=".69" stop-color="#0E7FFF" stop-opacity=".5"/><stop offset=".87" stop-color="#1639FF" stop-opacity=".22"/><stop offset="1" stop-color="#1C00FF" stop-opacity=".01"/></radialGradient></defs></svg>